# xmcd
#
# Track frame offsets: 
#        183
#        76113
#        117973
#        160233
#        181665
#        199798
#        248555
#        281830
#        294110
#
# Disc length: 4429 seconds
#
# Revision: 4
# Processed by: cddbd v1.5.2PL0 Copyright (c) Steve Scherf et al.
# Submitted via: ExactAudioCopy v0.95b4
#
DISCID=6e114b09
DTITLE=Miles Davis and Gil Evans - Concierto de Aranjuez (1996 Giants of
DTITLE=Jazz CD 23)
DYEAR=1961
DGENRE=Jazz
TTITLE0=Concierto de Aranjuez (Part 1 and 2)
TTITLE1=Teo
TTITLE2=Walkin'
TTITLE3=I Thought About You
TTITLE4=Spring Is Here
TTITLE5=No Blues
TTITLE6=Oleo
TTITLE7=Someday My Prince Will Come
TTITLE8=The Meaning of the Blues - Lament - New Rhumba
EXTD=1\nPlaying Time: 73:22Miles Davis and Gil Evans\nConcierto de Aranj
EXTD=uez\nCarnegie Hall\nMay 19\n1961 YEAR: 1996
EXTT0=
EXTT1=
EXTT2=
EXTT3=
EXTT4=
EXTT5=
EXTT6=
EXTT7=
EXTT8=
PLAYORDER=
